<svg xmlns="http://www.w3.org/2000/svg" xmlns:xlink="http://www.w3.org/1999/xlink" version="1.1" x="0px" y="0px" viewBox="0 0 24 30" enable-background="new 0 0 24 24" xml:space="preserve"><g><path d="M6.299,11.421c0.103,0,0.205-0.039,0.283-0.117c0.156-0.156,0.156-0.41,0-0.566c-1.094-1.092-1.695-2.545-1.695-4.09   s0.602-2.998,1.695-4.09c2.254-2.256,5.926-2.256,8.18,0c2.011,2.01,2.253,5.246,0.563,7.526c-0.132,0.178-0.095,0.429,0.083,0.56   c0.179,0.131,0.429,0.094,0.56-0.083c1.924-2.597,1.648-6.281-0.64-8.569c-2.567-2.565-6.743-2.566-9.313,0   C4.772,3.235,4.087,4.888,4.087,6.647s0.685,3.412,1.929,4.656C6.094,11.382,6.197,11.421,6.299,11.421z"/><path d="M16.024,11.069h-1.192c-0.184-0.615-0.774-0.865-1.204-0.875h-1.186V6.371c0-0.361-0.125-1.542-1.728-1.542   c-1.071,0-1.627,0.58-1.653,1.724c-0.045,1.963-0.042,7.063-0.039,9.12c-0.478-0.415-1.083-0.944-1.353-1.19   C7.038,13.9,6.284,13.86,5.649,14.375c-0.843,0.688-0.435,1.756-0.112,2.207l4.563,7.166c0.074,0.115,0.201,0.186,0.338,0.186h7.19   c0.171,0,0.323-0.109,0.379-0.271c0.065-0.192,1.609-4.726,1.844-6.371c0.097-0.688,0.061-1.801,0.029-2.782   c-0.014-0.409-0.025-0.787-0.025-1.079c0-1.063-1.018-1.41-1.581-1.446h-0.979c-0.078-0.267-0.209-0.454-0.329-0.567   C16.571,11.046,16.057,11.068,16.024,11.069z M17.365,13.601v-0.818l0.883-0.001c0.032,0.002,0.806,0.059,0.806,0.646   c0,0.3,0.013,0.686,0.026,1.104c0.029,0.902,0.065,2.025-0.022,2.645c-0.191,1.349-1.376,4.938-1.717,5.954h-6.684l-4.455-6.996   c-0.021-0.031-0.521-0.756-0.048-1.141c0.118-0.096,0.473-0.387,0.975,0.075c0.482,0.442,2.033,1.781,2.033,1.781   c0.119,0.104,0.287,0.126,0.429,0.061c0.143-0.065,0.233-0.208,0.233-0.364C9.823,16.473,9.804,9.033,9.86,6.57   c0.013-0.533,0.084-0.94,0.854-0.94c0.633,0,0.927,0.235,0.927,0.741v6.374c0,0.221,0.18,0.4,0.4,0.4s0.4-0.18,0.4-0.4v-1.75   l1.177-0.001c0.111,0.003,0.475,0.045,0.475,0.476v1.332c0,0.221,0.18,0.4,0.4,0.4s0.4-0.18,0.4-0.4V11.87l1.149-0.001   c-0.006-0.001,0.233-0.005,0.376,0.133c0.096,0.094,0.145,0.247,0.145,0.458v1.142c0,0.221,0.18,0.4,0.4,0.4   S17.365,13.822,17.365,13.601z"/></g><text x="0" y="39" fill="#000000" font-size="5px" font-weight="bold" font-family="'Helvetica Neue', Helvetica, Arial-Unicode, Arial, Sans-serif">Created by Atif Arshad</text><text x="0" y="44" fill="#000000" font-size="5px" font-weight="bold" font-family="'Helvetica Neue', Helvetica, Arial-Unicode, Arial, Sans-serif">from the Noun Project</text></svg>